<svg width="461" height="429" viewBox="0 0 461 429" fill="none" xmlns="http://www.w3.org/2000/svg">
<path d="M421.5 229.5C421.5 289.139 449.195 354.084 408.712 397.877C368.228 441.67 229.137 269.378 169.682 274.055C110.227 278.732 134.78 460.034 87.9465 423.109C41.1135 386.184 9.92323 332.96 0.598292 274.055C-8.72665 215.15 93.5442 232.584 126.682 182.999C159.821 133.415 121.39 20.4579 179.382 6.54232C237.375 -7.37325 298.482 1.08676 350.512 30.2345C402.543 59.3823 441.671 107.075 460.092 163.797L382.494 129.95C363.28 121.569 340.88 126.062 326.385 141.204L234.682 236.999L317.806 282.21C337.216 292.766 361.252 289.333 376.929 273.764L421.5 229.5Z" fill="white"/>
</svg>
